HIERARCHY
ROOT Hips
{
	OFFSET 0.000000 0.000000 0.000000
	CHANNELS 6 Xposition Yposition Zposition Zrotation Yrotation Xrotation 
	JOINT LeftUpLeg_virtual
	{
		OFFSET 0.000000 0.000000 0.000000
		CHANNELS 3 Zrotation Yrotation Xrotation
		JOINT LeftUpLeg
		{
			OFFSET 10.205400 -3.823500 0.155100
			CHANNELS 3 Zrotation Yrotation Xrotation
			JOINT LeftLeg
			{
				OFFSET 0.708757 -12.982077 0.567790
				CHANNELS 3 Zrotation Yrotation Xrotation
				JOINT LeftFoot
				{
					OFFSET -0.708756 -10.717838 -2.184338
					CHANNELS 3 Zrotation Yrotation Xrotation
					JOINT LeftToeBase
					{
						OFFSET 0.108149 -7.191104 7.560241
						CHANNELS 3 Zrotation Yrotation Xrotation
						End Site
						{
							OFFSET 0.000000 0.000000 0.000000
						}
					}
				}
			}
		}
	}
	JOINT RightUpLeg_virtual
	{
		OFFSET 0.000000 0.000000 0.000000
		CHANNELS 3 Zrotation Yrotation Xrotation
		JOINT RightUpLeg
		{
			OFFSET -10.205400 -3.823500 0.005500
			CHANNELS 3 Zrotation Yrotation Xrotation
			JOINT RightLeg
			{
				OFFSET -0.708756 -12.982134 0.610632
				CHANNELS 3 Zrotation Yrotation Xrotation
				JOINT RightFoot
				{
					OFFSET 0.708754 -10.717769 -1.945823
					CHANNELS 3 Zrotation Yrotation Xrotation
					JOINT RightToeBase
					{
						OFFSET -0.108140 -7.191069 7.372968
						CHANNELS 3 Zrotation Yrotation Xrotation
						End Site
						{
							OFFSET 0.000000 0.000000 0.000000
						}
					}
				}
			}
		}
	}
	JOINT Spine_virtual
	{
		OFFSET 0.000000 0.000000 0.000000
		CHANNELS 3 Zrotation Yrotation Xrotation
		JOINT Spine
		{
			OFFSET 0.000000 6.876099 0.125700
			CHANNELS 3 Zrotation Yrotation Xrotation
			JOINT Spine1
			{
				OFFSET 0.000000 8.022060 0.146608
				CHANNELS 3 Zrotation Yrotation Xrotation
				JOINT Spine2
				{
					OFFSET 0.000000 9.168068 0.167552
					CHANNELS 3 Zrotation Yrotation Xrotation
					JOINT Neck_virtual
					{
						OFFSET 0.000000 0.000000 0.000000
						CHANNELS 3 Zrotation Yrotation Xrotation
						JOINT Neck
						{
							OFFSET 0.000000 10.314075 0.188496
							CHANNELS 3 Zrotation Yrotation Xrotation
							JOINT Head
							{
								OFFSET 0.000000 7.643700 -2.377400
								CHANNELS 3 Zrotation Yrotation Xrotation
								End Site
								{
									OFFSET 0.000000 0.000000 0.000000
								}
							}
						}
					}
					JOINT LeftShoulder_virtual
					{
						OFFSET 0.000000 0.000000 0.000000
						CHANNELS 3 Zrotation Yrotation Xrotation
						JOINT LeftShoulder
						{
							OFFSET 4.392200 8.824978 0.174984
							CHANNELS 3 Zrotation Yrotation Xrotation
							JOINT LeftArm
							{
								OFFSET 8.771219 -2.981674 -0.026999
								CHANNELS 3 Zrotation Yrotation Xrotation
								JOINT LeftForeArm
								{
									OFFSET 8.512804 0.000000 -0.000000
									CHANNELS 3 Zrotation Yrotation Xrotation
									JOINT LeftHand
									{
										OFFSET 18.484802 0.000000 -0.000000
										CHANNELS 3 Zrotation Yrotation Xrotation
										End Site
										{
											OFFSET 0.000000 0.000000 0.000000
										}
									}
								}
							}
						}
					}
					JOINT RightShoulder_virtual
					{
						OFFSET 0.000000 0.000000 0.000000
						CHANNELS 3 Zrotation Yrotation Xrotation
						JOINT RightShoulder
						{
							OFFSET -4.392200 8.824993 0.141379
							CHANNELS 3 Zrotation Yrotation Xrotation
							JOINT RightArm
							{
								OFFSET -8.771282 -2.981682 -0.094208
								CHANNELS 3 Zrotation Yrotation Xrotation
								JOINT RightForeArm
								{
									OFFSET -8.494598 0.000000 0.000000
									CHANNELS 3 Zrotation Yrotation Xrotation
									JOINT RightHand
									{
										OFFSET -18.483803 0.000000 0.000001
										CHANNELS 3 Zrotation Yrotation Xrotation
										End Site
										{
											OFFSET 0.000000 0.000000 0.000000
										}
									}
								}
							}
						}
					}
				}
			}
		}
	}
}
MOTION
Frames: 6
Frame Time: 0.033333
-1.994660 35.635426 -49.326115 -179.814524 -36.187254 179.711689 -1.356543 3.156231 10.664958 -11.174094 -11.366925 -16.047562 9.848069 -3.047746 20.017584 -5.082844 -1.397962 4.712737 0.000000 0.000000 0.000000 3.829740 5.479109 11.059494 -15.231662 7.197135 -40.973509 -8.069880 6.464299 25.014787 15.415341 7.121821 22.162065 0.000000 0.000000 0.000000 1.436954 6.114892 -4.296470 0.319285 -6.077518 -12.424235 -0.624754 -5.573551 12.609818 -0.040208 -0.116791 -0.025453 -0.738268 -3.548117 15.353493 -7.022489 -5.789673 15.116098 0.000000 0.000000 0.000000 1.230760 -3.123686 12.156232 -10.581303 -6.792435 2.414752 -44.927977 -14.328639 44.627432 -23.119929 -80.078552 25.971900 0.000000 0.000000 0.000000 -3.304092 -1.292930 11.534175 17.374770 9.124953 -3.674734 69.921056 -34.090492 -29.474107 -168.607892 63.076100 -169.561113 0.000000 0.000000 0.000000 
-2.555001 35.530148 -50.292984 -179.950595 -41.190040 179.769650 -1.340052 3.130067 10.680414 -10.262334 -13.840960 -15.014042 9.724770 -3.366130 20.991967 -5.866633 -2.213628 3.269490 0.000000 0.000000 0.000000 3.659466 5.625023 11.005054 -16.862014 9.418588 -42.723520 -8.628851 6.444923 23.531231 15.568496 6.126774 22.241729 0.000000 0.000000 0.000000 1.549219 6.278306 -4.297764 0.460026 -5.882795 -12.821973 -0.568535 -5.732126 12.806435 0.004486 -0.119722 -0.055703 -0.738481 -3.676327 15.658922 -6.345519 -6.379014 15.776769 0.000000 0.000000 0.000000 1.285817 -3.299433 12.462587 -11.104295 -6.437357 2.675273 -44.661009 -14.275632 44.125409 -23.858915 -79.465385 26.958880 0.000000 0.000000 0.000000 -3.324986 -1.533468 11.801805 17.592310 9.453384 -3.619129 69.499279 -34.257053 -29.385041 -168.946696 62.886166 -169.662404 0.000000 0.000000 0.000000 
-3.182957 35.441929 -51.444534 -179.977479 -45.839524 179.853620 -1.452635 2.926153 10.765587 -9.052211 -15.604173 -13.794060 9.798934 -3.750926 21.989801 -6.729398 -3.283130 1.792085 0.000000 0.000000 0.000000 3.727114 5.876123 10.671265 -17.630209 10.396206 -42.848078 -9.262785 5.978809 22.576395 15.449307 4.910689 20.352963 0.000000 0.000000 0.000000 1.677545 6.055797 -4.558541 0.688965 -5.665207 -13.417769 -0.524582 -5.660832 12.977643 0.012290 -0.041015 -0.031166 -0.677841 -3.914182 15.862629 -5.690161 -6.773462 16.426260 0.000000 0.000000 0.000000 1.303201 -3.529982 12.516174 -11.694575 -6.124204 2.976531 -44.377771 -14.443487 43.956246 -22.430116 -78.882627 25.752120 0.000000 0.000000 0.000000 -3.303893 -1.737847 11.918824 17.928476 9.704809 -3.554399 69.218537 -34.465647 -29.241782 -168.627043 62.681165 -169.163391 0.000000 0.000000 0.000000 
-3.840978 35.367573 -52.757614 -179.977547 -50.373530 179.908071 -1.353245 2.402958 10.855483 -8.165326 -17.036285 -12.246088 10.490588 -4.480511 22.955071 -7.370033 -4.269456 0.509028 0.000000 0.000000 0.000000 4.336156 5.453387 10.053565 -19.091272 11.680386 -42.678164 -8.719032 8.424629 21.829717 15.715596 4.233808 19.991549 0.000000 0.000000 0.000000 1.711789 5.976025 -4.992075 0.909523 -5.438220 -14.077140 -0.522987 -5.893432 13.102550 -0.065580 0.059280 -0.059914 -0.570120 -4.216362 16.063531 -5.124650 -7.108949 17.075449 0.000000 0.000000 0.000000 1.420935 -3.753513 12.552161 -12.213002 -5.815921 3.295260 -43.985640 -14.787730 43.838941 -21.595043 -78.161557 25.118437 0.000000 0.000000 0.000000 -3.274001 -1.898084 12.039038 18.363807 9.954482 -3.220673 69.245646 -34.421561 -29.486487 -168.275043 62.556118 -168.647534 0.000000 0.000000 0.000000 
-4.492610 35.339035 -54.170902 179.678412 -55.238646 179.893440 -1.159471 1.182279 10.929536 -7.410619 -18.094334 -10.510583 10.476429 -5.204762 23.858711 -7.305098 -4.508745 0.026770 0.000000 0.000000 0.000000 4.452853 5.457204 9.456911 -20.050222 13.003782 -41.451267 -8.617725 11.676168 22.234113 17.772926 4.600079 19.977724 0.000000 0.000000 0.000000 1.549080 5.708380 -5.264750 1.042271 -5.355852 -14.621114 -0.556345 -6.039176 13.221328 0.093569 0.014594 -0.139791 -0.670784 -4.322260 16.214642 -4.719584 -7.390950 17.679236 0.000000 0.000000 0.000000 1.426166 -3.852339 12.671522 -12.620404 -5.830577 3.552405 -43.610550 -15.283247 44.119959 -20.690301 -77.490129 24.392612 0.000000 0.000000 0.000000 -3.428087 -2.075591 12.165381 18.810604 10.175653 -2.985006 69.316687 -34.384354 -29.820128 -167.883495 62.479073 -168.141239 0.000000 0.000000 0.000000 
-5.112485 35.369949 -55.563541 179.251471 -60.509220 179.848197 -0.903834 0.418074 11.040784 -6.191459 -18.765970 -9.315972 10.474336 -5.943382 24.961447 -7.095246 -4.513827 0.429956 0.000000 0.000000 0.000000 3.475828 5.794704 9.037583 -19.309647 13.943232 -39.459017 -8.778559 12.207275 23.040791 18.692729 4.743808 19.037209 0.000000 0.000000 0.000000 1.389484 5.126711 -5.378311 1.176347 -5.277702 -15.154895 -0.657998 -6.146739 13.327885 0.047484 -0.038353 -0.186336 -0.572227 -4.582228 16.229779 -4.242529 -7.340964 18.144893 0.000000 0.000000 0.000000 1.480116 -3.924570 12.698882 -12.745222 -5.865139 3.785943 -43.099293 -15.659093 44.633872 -20.565281 -77.411479 24.405811 0.000000 0.000000 0.000000 -3.389489 -2.195994 12.043035 19.346362 10.484263 -2.667045 69.496061 -34.282311 -30.173426 -166.962349 62.541775 -167.047945 0.000000 0.000000 0.000000 
